<?xml version="1.0" encoding="utf-8"?>
<!-- Generator: Adobe Illustrator 26.0.3, SVG Export Plug-In . SVG Version: 6.00 Build 0)  -->
<svg version="1.1" id="Layer_1" xmlns="http://www.w3.org/2000/svg" xmlns:xlink="http://www.w3.org/1999/xlink" x="0px" y="0px"
	 viewBox="0 0 153 45" style="enable-background:new 0 0 153 45;" xml:space="preserve">
<style type="text/css">
	.st0{fill:#221F1F;}
	.st1{fill:#F28021;}
	.st2{fill:#797979;}
</style>
<g>
	<g>
		<path class="st0" d="M15.86,19.85c-0.01-1.76-0.43-3.14-1.25-4.12c-0.82-0.98-1.94-1.47-3.38-1.47c-1.42,0-2.61,0.51-3.59,1.55
			c-0.98,1.03-1.58,2.38-1.81,4.04H15.86z M20.6,23.33H5.82c0.05,2,0.67,3.55,1.85,4.63c1.18,1.09,2.8,1.63,4.86,1.63
			c2.32,0,4.44-0.69,6.38-2.07v3.95c-1.97,1.24-4.59,1.87-7.84,1.87c-3.19,0-5.7-0.98-7.51-2.95c-1.81-1.97-2.72-4.74-2.72-8.31
			c0-3.38,1-6.12,3-8.25c2-2.13,4.48-3.19,7.44-3.19c2.97,0,5.26,0.95,6.89,2.86c1.62,1.91,2.43,4.55,2.43,7.95V23.33z"/>
		<path class="st0" d="M40.15,22.9v-2.82c0-1.53-0.51-2.83-1.51-3.9c-1.01-1.08-2.27-1.62-3.78-1.62c-1.87,0-3.33,0.69-4.37,2.06
			c-1.06,1.38-1.58,3.3-1.58,5.78c0,2.13,0.51,3.83,1.52,5.11c1.01,1.28,2.35,1.92,4.01,1.92c1.69,0,3.07-0.61,4.13-1.83
			C39.63,26.37,40.15,24.81,40.15,22.9 M45.03,31.1c0,7.96-4.01,11.94-12.01,11.94c-2.83,0-5.29-0.47-7.4-1.42v-4.49
			c2.37,1.35,4.63,2.03,6.76,2.03c5.15,0,7.73-2.54,7.73-7.61v-2.37h-0.09c-1.62,2.77-4.06,4.15-7.32,4.15
			c-2.64,0-4.77-0.96-6.39-2.89c-1.61-1.92-2.42-4.51-2.42-7.76c0-3.69,0.87-6.62,2.6-8.79c1.74-2.18,4.13-3.26,7.16-3.26
			c2.86,0,4.99,1.17,6.37,3.51h0.09v-3.01h4.92V31.1z"/>
		<path class="st0" d="M66.29,22.9v-2.82c0-1.53-0.51-2.83-1.51-3.9c-1.01-1.08-2.27-1.62-3.78-1.62c-1.87,0-3.33,0.69-4.37,2.06
			c-1.06,1.38-1.58,3.3-1.58,5.78c0,2.13,0.51,3.83,1.52,5.11c1,1.28,2.35,1.92,4.01,1.92c1.69,0,3.07-0.61,4.13-1.83
			C65.76,26.37,66.29,24.81,66.29,22.9 M71.16,31.1c0,7.96-4.01,11.94-12.01,11.94c-2.83,0-5.29-0.47-7.4-1.42v-4.49
			c2.37,1.35,4.63,2.03,6.76,2.03c5.15,0,7.73-2.54,7.73-7.61v-2.37h-0.09c-1.62,2.77-4.06,4.15-7.32,4.15
			c-2.64,0-4.77-0.96-6.39-2.89c-1.61-1.92-2.42-4.51-2.42-7.76c0-3.69,0.87-6.62,2.6-8.79c1.74-2.18,4.13-3.26,7.16-3.26
			c2.86,0,4.99,1.17,6.37,3.51h0.09v-3.01h4.92V31.1z"/>
		<path class="st0" d="M89.82,4.72c-0.67-0.38-1.42-0.57-2.27-0.57c-2.39,0-3.58,1.35-3.58,4.05v2.94h5.04V15h-5.02v17.84h-4.92V15
			h-3.7v-3.85h3.7V7.63c0-2.29,0.75-4.09,2.25-5.42c1.5-1.32,3.37-1.98,5.61-1.98c1.21,0,2.18,0.14,2.88,0.4V4.72z"/>
		<path class="st0" d="M116.42,15.82c-0.59-0.46-1.45-0.69-2.57-0.69c-1.45,0-2.67,0.66-3.64,1.97c-0.98,1.32-1.46,3.1-1.46,5.36
			v10.38h-4.92V11.14h4.92v4.47h0.09c0.48-1.53,1.21-2.71,2.21-3.56c1-0.86,2.1-1.29,3.33-1.29c0.89,0,1.57,0.14,2.04,0.4V15.82z"/>
		<path class="st0" d="M118.81,32.15V27.6c1.84,1.4,3.86,2.1,6.08,2.1c2.96,0,4.45-0.87,4.45-2.62c0-0.49-0.13-0.91-0.38-1.26
			c-0.25-0.35-0.59-0.66-1.03-0.93c-0.43-0.27-0.94-0.51-1.53-0.72c-0.59-0.22-1.24-0.46-1.96-0.72c-0.89-0.35-1.69-0.72-2.4-1.12
			c-0.72-0.4-1.31-0.85-1.78-1.34c-0.48-0.51-0.83-1.07-1.07-1.71c-0.25-0.64-0.36-1.37-0.36-2.23c0-1.04,0.25-1.97,0.74-2.76
			c0.5-0.8,1.16-1.47,2-2.01c0.83-0.54,1.78-0.95,2.83-1.23c1.06-0.27,2.15-0.41,3.28-0.41c2.01,0,3.8,0.3,5.39,0.91v4.29
			c-1.53-1.04-3.28-1.56-5.26-1.56c-0.62,0-1.19,0.06-1.68,0.19c-0.5,0.13-0.93,0.3-1.28,0.53c-0.35,0.22-0.63,0.5-0.82,0.82
			c-0.2,0.32-0.3,0.67-0.3,1.05c0,0.46,0.09,0.86,0.3,1.19c0.2,0.33,0.48,0.61,0.87,0.86c0.39,0.25,0.85,0.47,1.4,0.67
			c0.54,0.21,1.16,0.43,1.87,0.67c0.93,0.38,1.76,0.77,2.51,1.16s1.37,0.85,1.89,1.34c0.52,0.5,0.93,1.08,1.21,1.74
			c0.28,0.66,0.43,1.44,0.43,2.34c0,1.1-0.25,2.06-0.77,2.88c-0.51,0.82-1.19,1.5-2.03,2.04c-0.85,0.53-1.82,0.93-2.94,1.19
			c-1.11,0.26-2.28,0.39-3.51,0.39C122.6,33.34,120.55,32.95,118.81,32.15"/>
		<path class="st0" d="M150.3,32.6c-0.95,0.48-2.22,0.72-3.79,0.72c-4.21,0-6.31-2.02-6.31-6.06V15h-3.62v-3.85h3.62V6.13l4.92-1.4
			v6.42h5.18V15h-5.18v10.84c0,1.29,0.23,2.2,0.69,2.75c0.47,0.55,1.24,0.82,2.34,0.82c0.83,0,1.55-0.24,2.15-0.72V32.6z"/>
		<path class="st1" d="M96.58,32.88c-0.9,0-1.66-0.29-2.29-0.87c-0.63-0.57-0.94-1.28-0.94-2.1c0-0.85,0.31-1.58,0.94-2.18
			c0.63-0.6,1.39-0.9,2.29-0.9c0.87,0,1.62,0.31,2.26,0.9c0.64,0.6,0.95,1.33,0.95,2.18c0,0.82-0.31,1.52-0.95,2.1
			C98.2,32.59,97.44,32.88,96.58,32.88 M99.06,0.25l-0.42,22.71h-4.27L93.8,0.25H99.06z"/>
	</g>
	<g>
		<path class="st2" d="M77.81,42.81H76.9v-0.65h-0.02c-0.29,0.5-0.71,0.75-1.26,0.75c-0.41,0-0.73-0.11-0.96-0.33
			s-0.35-0.52-0.35-0.88c0-0.79,0.45-1.24,1.36-1.37l1.23-0.17c0-0.59-0.28-0.89-0.84-0.89c-0.5,0-0.94,0.17-1.34,0.51v-0.82
			c0.44-0.26,0.94-0.39,1.52-0.39c1.05,0,1.58,0.52,1.58,1.55V42.81z M76.9,40.77l-0.87,0.12c-0.27,0.04-0.47,0.1-0.61,0.2
			c-0.14,0.1-0.21,0.26-0.21,0.51c0,0.18,0.06,0.32,0.19,0.43c0.13,0.11,0.29,0.17,0.51,0.17c0.29,0,0.52-0.1,0.71-0.3
			s0.28-0.46,0.28-0.76V40.77z"/>
		<path class="st2" d="M78.66,42.68V41.8c0.35,0.27,0.74,0.4,1.17,0.4c0.57,0,0.85-0.17,0.85-0.5c0-0.09-0.02-0.18-0.07-0.24
			c-0.05-0.07-0.11-0.13-0.2-0.18c-0.08-0.05-0.18-0.1-0.29-0.14c-0.11-0.04-0.24-0.09-0.38-0.14c-0.17-0.07-0.32-0.14-0.46-0.22
			c-0.14-0.08-0.25-0.16-0.34-0.26c-0.09-0.1-0.16-0.21-0.21-0.33c-0.05-0.12-0.07-0.26-0.07-0.43c0-0.2,0.05-0.38,0.14-0.53
			c0.09-0.15,0.22-0.28,0.38-0.39c0.16-0.1,0.34-0.18,0.54-0.24c0.2-0.05,0.41-0.08,0.63-0.08c0.38,0,0.73,0.06,1.03,0.17v0.82
			c-0.29-0.2-0.63-0.3-1.01-0.3c-0.12,0-0.23,0.01-0.32,0.04c-0.1,0.02-0.18,0.06-0.25,0.1c-0.07,0.04-0.12,0.1-0.16,0.16
			c-0.04,0.06-0.06,0.13-0.06,0.2c0,0.09,0.02,0.17,0.06,0.23c0.04,0.06,0.09,0.12,0.17,0.16c0.07,0.05,0.16,0.09,0.27,0.13
			c0.1,0.04,0.22,0.08,0.36,0.13c0.18,0.07,0.34,0.15,0.48,0.22c0.14,0.08,0.26,0.16,0.36,0.26c0.1,0.1,0.18,0.21,0.23,0.33
			c0.05,0.13,0.08,0.28,0.08,0.45c0,0.21-0.05,0.4-0.15,0.55s-0.23,0.29-0.39,0.39c-0.16,0.1-0.35,0.18-0.56,0.23
			c-0.21,0.05-0.44,0.08-0.67,0.08C79.38,42.91,78.99,42.83,78.66,42.68z"/>
		<path class="st2" d="M88.49,42.48c0,1.53-0.77,2.29-2.3,2.29c-0.54,0-1.01-0.09-1.42-0.27v-0.86c0.45,0.26,0.89,0.39,1.3,0.39
			c0.99,0,1.48-0.49,1.48-1.46v-0.45h-0.02c-0.31,0.53-0.78,0.8-1.41,0.8c-0.51,0-0.91-0.18-1.22-0.55
			c-0.31-0.37-0.47-0.87-0.47-1.49c0-0.71,0.17-1.27,0.5-1.69c0.33-0.42,0.79-0.63,1.37-0.63c0.55,0,0.96,0.22,1.22,0.67h0.02v-0.58
			h0.94V42.48z M87.56,40.9v-0.54c0-0.29-0.1-0.54-0.29-0.75c-0.19-0.21-0.44-0.31-0.73-0.31c-0.36,0-0.64,0.13-0.84,0.4
			c-0.2,0.26-0.3,0.63-0.3,1.11c0,0.41,0.1,0.74,0.29,0.98c0.19,0.25,0.45,0.37,0.77,0.37c0.33,0,0.59-0.12,0.79-0.35
			C87.46,41.57,87.56,41.27,87.56,40.9z"/>
		<path class="st2" d="M91.52,42.91c-0.64,0-1.15-0.19-1.54-0.58c-0.38-0.39-0.57-0.9-0.57-1.55c0-0.7,0.2-1.24,0.6-1.64
			c0.4-0.39,0.94-0.59,1.61-0.59c0.65,0,1.16,0.19,1.52,0.57c0.36,0.38,0.54,0.91,0.54,1.59c0,0.66-0.2,1.19-0.59,1.59
			C92.71,42.71,92.18,42.91,91.52,42.91z M91.57,39.3c-0.37,0-0.66,0.13-0.87,0.39c-0.21,0.26-0.32,0.61-0.32,1.06
			c0,0.44,0.11,0.78,0.33,1.03c0.22,0.25,0.51,0.38,0.87,0.38c0.37,0,0.66-0.12,0.86-0.37c0.2-0.25,0.3-0.6,0.3-1.05
			c0-0.46-0.1-0.81-0.3-1.06C92.22,39.43,91.94,39.3,91.57,39.3z"/>
		<path class="st2" d="M96.45,42.91c-0.64,0-1.15-0.19-1.54-0.58c-0.38-0.39-0.57-0.9-0.57-1.55c0-0.7,0.2-1.24,0.6-1.64
			c0.4-0.39,0.94-0.59,1.61-0.59c0.65,0,1.16,0.19,1.52,0.57c0.36,0.38,0.54,0.91,0.54,1.59c0,0.66-0.2,1.19-0.59,1.59
			C97.63,42.71,97.11,42.91,96.45,42.91z M96.49,39.3c-0.37,0-0.66,0.13-0.87,0.39c-0.21,0.26-0.32,0.61-0.32,1.06
			c0,0.44,0.11,0.78,0.33,1.03c0.22,0.25,0.51,0.38,0.87,0.38c0.37,0,0.66-0.12,0.86-0.37c0.2-0.25,0.3-0.6,0.3-1.05
			c0-0.46-0.1-0.81-0.3-1.06C97.15,39.43,96.86,39.3,96.49,39.3z"/>
		<path class="st2" d="M103.31,42.81h-0.94V42.1h-0.02c-0.3,0.54-0.77,0.8-1.4,0.8c-0.51,0-0.92-0.19-1.23-0.56
			c-0.31-0.37-0.46-0.88-0.46-1.52c0-0.69,0.17-1.24,0.51-1.65c0.34-0.41,0.79-0.62,1.36-0.62c0.56,0,0.97,0.22,1.22,0.67h0.02
			v-2.57h0.94V42.81z M102.38,40.91v-0.54c0-0.3-0.1-0.55-0.29-0.75c-0.19-0.21-0.44-0.31-0.74-0.31c-0.35,0-0.63,0.13-0.83,0.39
			c-0.2,0.26-0.3,0.63-0.3,1.09c0,0.42,0.1,0.76,0.29,1c0.19,0.25,0.45,0.37,0.78,0.37c0.32,0,0.58-0.12,0.78-0.36
			C102.28,41.57,102.38,41.27,102.38,40.91z"/>
		<path class="st2" d="M109.94,42.81h-0.91v-0.65h-0.02c-0.29,0.5-0.71,0.75-1.26,0.75c-0.41,0-0.73-0.11-0.96-0.33
			c-0.23-0.22-0.35-0.52-0.35-0.88c0-0.79,0.45-1.24,1.36-1.37l1.23-0.17c0-0.59-0.28-0.89-0.84-0.89c-0.5,0-0.94,0.17-1.34,0.51
			v-0.82c0.44-0.26,0.94-0.39,1.52-0.39c1.05,0,1.58,0.52,1.58,1.55V42.81z M109.03,40.77l-0.87,0.12c-0.27,0.04-0.47,0.1-0.61,0.2
			c-0.14,0.1-0.21,0.26-0.21,0.51c0,0.18,0.06,0.32,0.19,0.43c0.13,0.11,0.29,0.17,0.51,0.17c0.29,0,0.52-0.1,0.71-0.3
			s0.28-0.46,0.28-0.76V40.77z"/>
		<path class="st2" d="M110.78,42.68V41.8c0.35,0.27,0.74,0.4,1.17,0.4c0.57,0,0.85-0.17,0.85-0.5c0-0.09-0.02-0.18-0.07-0.24
			c-0.05-0.07-0.11-0.13-0.2-0.18c-0.08-0.05-0.18-0.1-0.29-0.14c-0.11-0.04-0.24-0.09-0.38-0.14c-0.17-0.07-0.32-0.14-0.46-0.22
			c-0.14-0.08-0.25-0.16-0.34-0.26c-0.09-0.1-0.16-0.21-0.21-0.33c-0.05-0.12-0.07-0.26-0.07-0.43c0-0.2,0.05-0.38,0.14-0.53
			c0.09-0.15,0.22-0.28,0.38-0.39c0.16-0.1,0.34-0.18,0.54-0.24c0.2-0.05,0.41-0.08,0.63-0.08c0.38,0,0.73,0.06,1.03,0.17v0.82
			c-0.29-0.2-0.63-0.3-1.01-0.3c-0.12,0-0.23,0.01-0.32,0.04c-0.1,0.02-0.18,0.06-0.25,0.1c-0.07,0.04-0.12,0.1-0.16,0.16
			c-0.04,0.06-0.06,0.13-0.06,0.2c0,0.09,0.02,0.17,0.06,0.23c0.04,0.06,0.09,0.12,0.17,0.16c0.07,0.05,0.16,0.09,0.27,0.13
			c0.1,0.04,0.22,0.08,0.36,0.13c0.18,0.07,0.34,0.15,0.48,0.22c0.14,0.08,0.26,0.16,0.36,0.26c0.1,0.1,0.18,0.21,0.23,0.33
			c0.05,0.13,0.08,0.28,0.08,0.45c0,0.21-0.05,0.4-0.15,0.55c-0.1,0.16-0.23,0.29-0.39,0.39c-0.16,0.1-0.35,0.18-0.56,0.23
			c-0.21,0.05-0.44,0.08-0.67,0.08C111.51,42.91,111.12,42.83,110.78,42.68z"/>
		<path class="st2" d="M118.68,42.91c-0.64,0-1.15-0.19-1.54-0.58c-0.38-0.39-0.57-0.9-0.57-1.55c0-0.7,0.2-1.24,0.6-1.64
			c0.4-0.39,0.94-0.59,1.61-0.59c0.65,0,1.16,0.19,1.52,0.57c0.36,0.38,0.54,0.91,0.54,1.59c0,0.66-0.2,1.19-0.59,1.59
			C119.86,42.71,119.34,42.91,118.68,42.91z M118.72,39.3c-0.37,0-0.66,0.13-0.87,0.39c-0.21,0.26-0.32,0.61-0.32,1.06
			c0,0.44,0.11,0.78,0.33,1.03c0.22,0.25,0.51,0.38,0.87,0.38c0.37,0,0.66-0.12,0.86-0.37c0.2-0.25,0.3-0.6,0.3-1.05
			c0-0.46-0.1-0.81-0.3-1.06C119.38,39.43,119.09,39.3,118.72,39.3z"/>
		<path class="st2" d="M125.39,42.81h-0.94v-0.66h-0.02c-0.27,0.5-0.7,0.76-1.28,0.76c-0.98,0-1.47-0.59-1.47-1.77v-2.49h0.94v2.39
			c0,0.75,0.29,1.12,0.86,1.12c0.28,0,0.51-0.1,0.69-0.31c0.18-0.21,0.27-0.48,0.27-0.81v-2.39h0.94V42.81z"/>
		<path class="st2" d="M128.98,39.55c-0.11-0.09-0.28-0.13-0.49-0.13c-0.28,0-0.51,0.13-0.7,0.38c-0.19,0.25-0.28,0.59-0.28,1.03
			v1.99h-0.94v-4.16h0.94v0.86h0.02c0.09-0.29,0.23-0.52,0.42-0.68c0.19-0.16,0.4-0.25,0.64-0.25c0.17,0,0.3,0.03,0.39,0.08V39.55z"
			/>
		<path class="st2" d="M137.45,38.65l-1.23,4.16h-0.99l-0.76-2.82c-0.03-0.11-0.05-0.23-0.06-0.37h-0.02
			c-0.01,0.09-0.03,0.21-0.07,0.36l-0.82,2.83h-0.97l-1.22-4.16h0.97l0.76,3c0.02,0.09,0.04,0.21,0.05,0.36h0.03
			c0.01-0.11,0.03-0.24,0.07-0.37l0.84-2.99h0.89l0.75,3.01c0.02,0.09,0.04,0.21,0.05,0.36h0.03c0.01-0.1,0.03-0.22,0.06-0.36
			l0.74-3.01H137.45z"/>
		<path class="st2" d="M139.91,42.91c-0.64,0-1.15-0.19-1.54-0.58c-0.38-0.39-0.57-0.9-0.57-1.55c0-0.7,0.2-1.24,0.6-1.64
			c0.4-0.39,0.94-0.59,1.61-0.59c0.65,0,1.16,0.19,1.52,0.57c0.36,0.38,0.54,0.91,0.54,1.59c0,0.66-0.2,1.19-0.59,1.59
			C141.1,42.71,140.57,42.91,139.91,42.91z M139.96,39.3c-0.37,0-0.66,0.13-0.87,0.39c-0.21,0.26-0.32,0.61-0.32,1.06
			c0,0.44,0.11,0.78,0.33,1.03c0.22,0.25,0.51,0.38,0.87,0.38c0.37,0,0.66-0.12,0.86-0.37c0.2-0.25,0.3-0.6,0.3-1.05
			c0-0.46-0.1-0.81-0.3-1.06C140.61,39.43,140.33,39.3,139.96,39.3z"/>
		<path class="st2" d="M145.41,39.55c-0.11-0.09-0.28-0.13-0.49-0.13c-0.28,0-0.51,0.13-0.7,0.38c-0.19,0.25-0.28,0.59-0.28,1.03
			v1.99H143v-4.16h0.94v0.86h0.02c0.09-0.29,0.23-0.52,0.42-0.68c0.19-0.16,0.4-0.25,0.64-0.25c0.17,0,0.3,0.03,0.39,0.08V39.55z"/>
		<path class="st2" d="M149.74,42.81h-0.94V42.1h-0.02c-0.3,0.54-0.77,0.8-1.4,0.8c-0.51,0-0.92-0.19-1.23-0.56
			c-0.31-0.37-0.46-0.88-0.46-1.52c0-0.69,0.17-1.24,0.51-1.65c0.34-0.41,0.79-0.62,1.36-0.62c0.56,0,0.97,0.22,1.22,0.67h0.02
			v-2.57h0.94V42.81z M148.81,40.91v-0.54c0-0.3-0.1-0.55-0.29-0.75c-0.19-0.21-0.44-0.31-0.74-0.31c-0.35,0-0.63,0.13-0.83,0.39
			c-0.2,0.26-0.3,0.63-0.3,1.09c0,0.42,0.1,0.76,0.29,1c0.19,0.25,0.45,0.37,0.78,0.37c0.32,0,0.58-0.12,0.78-0.36
			C148.71,41.57,148.81,41.27,148.81,40.91z"/>
		<path class="st2" d="M151.58,42.89c-0.16,0-0.3-0.05-0.41-0.16c-0.11-0.1-0.17-0.23-0.17-0.38c0-0.15,0.06-0.29,0.17-0.39
			c0.11-0.11,0.25-0.16,0.41-0.16c0.16,0,0.29,0.05,0.41,0.16c0.12,0.11,0.17,0.24,0.17,0.39c0,0.15-0.06,0.28-0.17,0.38
			C151.87,42.84,151.74,42.89,151.58,42.89z M152.03,36.98l-0.08,4.11h-0.77l-0.11-4.11H152.03z"/>
	</g>
</g>
</svg>
