<?xml version="1.0" encoding="UTF-8"?>
<svg version="1.1" xmlns="http://www.w3.org/2000/svg" width="180" height="79">
<path d="M0 0 C59.4 0 118.8 0 180 0 C180 26.07 180 52.14 180 79 C120.6 79 61.2 79 0 79 C0 52.93 0 26.86 0 0 Z " fill="#0A0F13" transform="translate(0,0)"/>
<path d="M0 0 C0.33 0 0.66 0 1 0 C1 21.78 1 43.56 1 66 C-58.4 66 -117.8 66 -179 66 C-178.505 65.01 -178.505 65.01 -178 64 C-177.91627341 62.47851674 -177.89269973 60.95344222 -177.90234375 59.4296875 C-177.90556641 58.53378906 -177.90878906 57.63789062 -177.91210938 56.71484375 C-177.92467773 55.30912109 -177.92467773 55.30912109 -177.9375 53.875 C-177.94201172 52.93011719 -177.94652344 51.98523438 -177.95117188 51.01171875 C-177.96297643 48.67441613 -177.97944241 46.33723939 -178 44 C-174.78548731 42.39274365 -171.56387464 42.94251815 -168 43 C-167.75894531 42.3503125 -167.51789063 41.700625 -167.26953125 41.03125 C-166 39 -166 39 -164.01171875 38.53125 C-163.24472656 38.5209375 -162.47773438 38.510625 -161.6875 38.5 C-157.20153127 38.22052272 -155.45479749 36.89456006 -152 34 C-148.9375 33.8125 -148.9375 33.8125 -146 34 C-144.65938457 33.69728039 -143.32594105 33.36162029 -142 33 C-140.845 33 -139.69 33 -138.5 33 C-134.94648165 32.40359778 -134.94648165 32.40359778 -133.73046875 30.00390625 C-133.04501196 28.39937257 -132.40755081 26.77332197 -131.82421875 25.12890625 C-131 23 -131 23 -129 21 C-127.0625 21.1875 -127.0625 21.1875 -125 22 C-124.59007812 22.52851562 -124.18015625 23.05703125 -123.7578125 23.6015625 C-121.9928639 25.32166588 -121.9928639 25.32166588 -119.08203125 24.85546875 C-118.00308594 24.63503906 -116.92414063 24.41460937 -115.8125 24.1875 C-114.72582031 23.97480469 -113.63914062 23.76210938 -112.51953125 23.54296875 C-111.68808594 23.36378906 -110.85664062 23.18460938 -110 23 C-109.67 20.69 -109.34 18.38 -109 16 C-111.31 16 -113.62 16 -116 16 C-116 11.38 -116 6.76 -116 2 C-113.03 2 -110.06 2 -107 2 C-107 2.66 -107 3.32 -107 4 C-109.31 4 -111.62 4 -114 4 C-114 5.65 -114 7.3 -114 9 C-112.35 9 -110.7 9 -109 9 C-109 9.66 -109 10.32 -109 11 C-110.65 11 -112.3 11 -114 11 C-114 11.66 -114 12.32 -114 13 C-112.96875 12.979375 -111.9375 12.95875 -110.875 12.9375 C-107 13 -107 13 -101 14 C-98.69 10.04 -96.38 6.08 -94 2 C-90.72509912 5.27490088 -89.11675014 7.91248249 -87 12 C-87 12.99 -87 13.98 -87 15 C-87.66 15 -88.32 15 -89 15 C-89 14.34 -89 13.68 -89 13 C-90.9490625 13.185625 -90.9490625 13.185625 -92.9375 13.375 C-93.66839844 13.44460937 -94.39929688 13.51421875 -95.15234375 13.5859375 C-95.76207031 13.72257812 -96.37179688 13.85921875 -97 14 C-97.33 14.66 -97.66 15.32 -98 16 C-98.66 16 -99.32 16 -100 16 C-100 17.32 -100 18.64 -100 20 C-99.39671875 19.89300781 -98.7934375 19.78601563 -98.171875 19.67578125 C-91.51376147 18.67706422 -91.51376147 18.67706422 -88.8125 20.375 C-88.214375 20.91125 -87.61625 21.4475 -87 22 C-83.84881675 22.72045367 -83.84881675 22.72045367 -81 23 C-81 23.66 -81 24.32 -81 25 C-77.7 24.67 -74.4 24.34 -71 24 C-71.66 23.67 -72.32 23.34 -73 23 C-73 22.34 -73 21.68 -73 21 C-71.02 21 -69.04 21 -67 21 C-67 21.66 -67 22.32 -67 23 C-66.37351562 23.13277344 -65.74703125 23.26554687 -65.1015625 23.40234375 C-64.28429687 23.57894531 -63.46703125 23.75554688 -62.625 23.9375 C-61.81289062 24.11152344 -61.00078125 24.28554688 -60.1640625 24.46484375 C-58 25 -58 25 -56 26 C-54.68 24.35 -53.36 22.7 -52 21 C-49.13275314 21.57344937 -48.1385485 21.8614515 -46 24 C-45.690625 24.99 -45.38125 25.98 -45.0625 27 C-44.24072925 30.27221752 -44.24072925 30.27221752 -41 32 C-38.86715646 32.4254564 -36.7177916 32.77137662 -34.5625 33.0625 C-30.97978084 33.55568432 -27.48858682 34.03926051 -24 35 C-23.2575 35.185625 -22.515 35.37125 -21.75 35.5625 C-21.1725 35.706875 -20.595 35.85125 -20 36 C-20 36.99 -20 37.98 -20 39 C-17.03 38.505 -17.03 38.505 -14 38 C-14 38.66 -14 39.32 -14 40 C-13.01 39.67 -12.02 39.34 -11 39 C-10.01 39.33 -9.02 39.66 -8 40 C-8 40.66 -8 41.32 -8 42 C-6.68 42.33 -5.36 42.66 -4 43 C-4 42.34 -4 41.68 -4 41 C-2.68 41 -1.36 41 0 41 C-0.07726318 40.23341064 -0.15452637 39.46682129 -0.23413086 38.67700195 C-1.00607951 30.11743479 -0.95467768 21.76582321 -0.5625 13.1875 C-0.51029297 11.91068359 -0.45808594 10.63386719 -0.40429688 9.31835938 C-0.27631485 6.2118867 -0.14145353 3.10588333 0 0 Z " fill="#121326" transform="translate(179,13)"/>
<path d="M0 0 C2.97 0 5.94 0 9 0 C9 0.66 9 1.32 9 2 C6.69 2 4.38 2 2 2 C2 3.65 2 5.3 2 7 C3.65 7 5.3 7 7 7 C7 7.66 7 8.32 7 9 C5.35 9 3.7 9 2 9 C2 9.66 2 10.32 2 11 C3.03125 10.979375 4.0625 10.95875 5.125 10.9375 C9 11 9 11 15 12 C17.31 8.04 19.62 4.08 22 0 C25.27490088 3.27490088 26.88324986 5.91248249 29 10 C29 10.99 29 11.98 29 13 C28.34 13 27.68 13 27 13 C27 12.34 27 11.68 27 11 C25.0509375 11.185625 25.0509375 11.185625 23.0625 11.375 C22.33160156 11.44460937 21.60070312 11.51421875 20.84765625 11.5859375 C20.23792969 11.72257812 19.62820312 11.85921875 19 12 C18.67 12.66 18.34 13.32 18 14 C17.34 14 16.68 14 16 14 C16 15.32 16 16.64 16 18 C16.60328125 17.89300781 17.2065625 17.78601563 17.828125 17.67578125 C24.48623853 16.67706422 24.48623853 16.67706422 27.1875 18.375 C27.785625 18.91125 28.38375 19.4475 29 20 C32.15118325 20.72045367 32.15118325 20.72045367 35 21 C35 21.66 35 22.32 35 23 C38.3 22.67 41.6 22.34 45 22 C44.34 21.67 43.68 21.34 43 21 C43 20.34 43 19.68 43 19 C44.98 19 46.96 19 49 19 C49 19.66 49 20.32 49 21 C49.62648437 21.13277344 50.25296875 21.26554687 50.8984375 21.40234375 C51.71570313 21.57894531 52.53296875 21.75554688 53.375 21.9375 C54.59316406 22.19853516 54.59316406 22.19853516 55.8359375 22.46484375 C58 23 58 23 60 24 C61.32 22.35 62.64 20.7 64 19 C66.86724686 19.57344937 67.8614515 19.8614515 70 22 C69.875 24.4375 69.875 24.4375 69 27 C67.68 27.99 66.36 28.98 65 30 C68.3 31.65 71.6 33.3 75 35 C75 35.33 75 35.66 75 36 C73.89487061 35.97381592 72.78974121 35.94763184 71.65112305 35.9206543 C67.55318426 35.83019363 63.45533372 35.77276664 59.35668945 35.7253418 C57.58244999 35.70018794 55.80831424 35.66606039 54.03442383 35.62280273 C51.48492882 35.56218537 48.93680249 35.53380073 46.38671875 35.51171875 C45.19594978 35.47300911 45.19594978 35.47300911 43.98112488 35.43351746 C41.476843 35.37588699 41.476843 35.37588699 38 36 C36.02714769 38.35671336 36.02714769 38.35671336 35 41 C31.80713177 42.59643412 28.46579307 42.51370451 25 42 C22.5 40.125 22.5 40.125 21 38 C21 37.34 21 36.68 21 36 C6.15 35.505 6.15 35.505 -9 35 C-5.00889681 33.0044484 -3.30013434 32.80453935 1 33 C1.33 32.01 1.66 31.02 2 30 C4.0625 29.3125 4.0625 29.3125 6 29 C5.98839844 28.33613281 5.97679688 27.67226563 5.96484375 26.98828125 C5.87521968 18.21792619 5.87521968 18.21792619 7 14 C4.69 14 2.38 14 0 14 C0 9.38 0 4.76 0 0 Z " fill="#475057" transform="translate(63,15)"/>
<path d="M0 0 C1.9375 0.1875 1.9375 0.1875 4 1 C4.40992188 1.52851562 4.81984375 2.05703125 5.2421875 2.6015625 C7.0071361 4.32166588 7.0071361 4.32166588 9.91796875 3.85546875 C10.99691406 3.63503906 12.07585938 3.41460937 13.1875 3.1875 C14.27417969 2.97480469 15.36085938 2.76210938 16.48046875 2.54296875 C17.31191406 2.36378906 18.14335938 2.18460938 19 2 C19 4.64 19 7.28 19 10 C18.360625 10.28875 17.72125 10.5775 17.0625 10.875 C14.84793921 11.82823451 14.84793921 11.82823451 14 14 C10.9375 14.625 10.9375 14.625 8 15 C9.02154175 15.03758423 9.02154175 15.03758423 10.0637207 15.07592773 C13.14683755 15.19190952 16.22965046 15.31462616 19.3125 15.4375 C20.9202832 15.49647461 20.9202832 15.49647461 22.56054688 15.55664062 C24.10258789 15.61948242 24.10258789 15.61948242 25.67578125 15.68359375 C26.62364502 15.72025146 27.57150879 15.75690918 28.5480957 15.79467773 C31 16 31 16 34 17 C34 17.66 34 18.32 34 19 C35.32 19.66 36.64 20.32 38 21 C38 21.66 38 22.32 38 23 C39.60780009 22.7978938 41.21139655 22.56217135 42.8125 22.3125 C44.15248047 22.12107422 44.15248047 22.12107422 45.51953125 21.92578125 C48.25026428 21.23913207 48.25026428 21.23913207 49.15820312 18.47265625 C51 16 51 16 54.5534668 15.43237305 C56.01895592 15.43316312 57.48459595 15.46132979 58.94921875 15.51171875 C59.72183548 15.51879349 60.49445221 15.52586823 61.29048157 15.53315735 C63.75714142 15.56113745 66.22152704 15.62387593 68.6875 15.6875 C70.35999324 15.7125785 72.03252209 15.73539246 73.70507812 15.75585938 C77.80426109 15.81097509 81.90174507 15.89726704 86 16 C81.05 13.525 81.05 13.525 76 11 C77.32 10.34 78.64 9.68 80 9 C83.25 10.375 83.25 10.375 86 12 C86 12.66 86 13.32 86 14 C88.31 14.66 90.62 15.32 93 16 C93 16.66 93 17.32 93 18 C89.14593663 18.16911283 85.29173507 18.33485038 81.4375 18.5 C79.80844727 18.57154297 79.80844727 18.57154297 78.14648438 18.64453125 C72.75902904 18.87378467 67.39236804 19.06189232 62 19 C61.25042843 22.47147842 61.25042843 22.47147842 61 26 C62.98 26.66 64.96 27.32 67 28 C66.505 30.475 66.505 30.475 66 33 C64.68 32.34 63.36 31.68 62 31 C62 30.01 62 29.02 62 28 C61.01 28 60.02 28 59 28 C58.67 29.32 58.34 30.64 58 32 C57.34 32 56.68 32 56 32 C55.505 30.515 55.505 30.515 55 29 C53.68 29 52.36 29 51 29 C51 29.99 51 30.98 51 32 C50.34 32 49.68 32 49 32 C48.731875 31.360625 48.46375 30.72125 48.1875 30.0625 C47.11332248 27.66868314 47.11332248 27.66868314 44 27 C44 28.65 44 30.3 44 32 C41.66666667 32 39.33333333 32 37 32 C36.13375 32.185625 35.2675 32.37125 34.375 32.5625 C33.59125 32.706875 32.8075 32.85125 32 33 C31 32 31 32 30.9375 29.4375 C30.958125 28.633125 30.97875 27.82875 31 27 C32.32 26.67 33.64 26.34 35 26 C34.195625 25.443125 33.39125 24.88625 32.5625 24.3125 C30 22 30 22 29 17 C16.79 17 4.58 17 -8 17 C-5.49316923 13.23975384 -3.13506066 12.60807914 1 11 C-0.0209375 10.1646875 -0.0209375 10.1646875 -1.0625 9.3125 C-3 7 -3 7 -2.875 4.375 C-2 2 -2 2 0 0 Z " fill="#282947" transform="translate(50,34)"/>
<path d="M0 0 C1.98 0 3.96 0 6 0 C6 0.66 6 1.32 6 2 C6.62648437 2.13277344 7.25296875 2.26554687 7.8984375 2.40234375 C8.71570313 2.57894531 9.53296875 2.75554688 10.375 2.9375 C11.18710938 3.11152344 11.99921875 3.28554688 12.8359375 3.46484375 C15 4 15 4 17 5 C18.32 3.35 19.64 1.7 21 0 C23.86724686 0.57344937 24.8614515 0.8614515 27 3 C26.875 5.4375 26.875 5.4375 26 8 C24.68 8.99 23.36 9.98 22 11 C26.95 13.475 26.95 13.475 32 16 C32 16.33 32 16.66 32 17 C30.89487061 16.97381592 29.78974121 16.94763184 28.65112305 16.9206543 C24.55318426 16.83019363 20.45533372 16.77276664 16.35668945 16.7253418 C14.58244999 16.70018794 12.80831424 16.66606039 11.03442383 16.62280273 C8.48492882 16.56218537 5.93680249 16.53380073 3.38671875 16.51171875 C2.19594978 16.47300911 2.19594978 16.47300911 0.98112488 16.43351746 C-1.523157 16.37588699 -1.523157 16.37588699 -5 17 C-6.97285231 19.35671336 -6.97285231 19.35671336 -8 22 C-11.19286823 23.59643412 -14.53420693 23.51370451 -18 23 C-20.5 21.125 -20.5 21.125 -22 19 C-22 18.34 -22 17.68 -22 17 C-36.85 16.505 -36.85 16.505 -52 16 C-46.16789828 13.08394914 -40.85257823 13.88505941 -34.4375 14.125 C-32.57061523 14.15980469 -32.57061523 14.15980469 -30.66601562 14.1953125 C-28.8803418 14.2571875 -28.8803418 14.2571875 -27.05859375 14.3203125 C-25.42361938 14.37082764 -25.42361938 14.37082764 -23.75561523 14.42236328 C-21 15 -21 15 -19.24902344 17.00439453 C-18.8368457 17.66294434 -18.42466797 18.32149414 -18 19 C-15.9683434 19.68850829 -15.9683434 19.68850829 -13.8125 19.75 C-12.554375 19.8325 -11.29625 19.915 -10 20 C-9.855625 19.360625 -9.71125 18.72125 -9.5625 18.0625 C-9 16 -9 16 -8 15 C-5.81707226 14.76518307 -3.62796826 14.58636677 -1.4375 14.4375 C-0.23996094 14.35371094 0.95757812 14.26992188 2.19140625 14.18359375 C3.11824219 14.12300781 4.04507813 14.06242187 5 14 C4.36191406 13.89042969 3.72382812 13.78085937 3.06640625 13.66796875 C1.82697266 13.43013672 1.82697266 13.43013672 0.5625 13.1875 C-0.67306641 12.96126953 -0.67306641 12.96126953 -1.93359375 12.73046875 C-2.95646484 12.36888672 -2.95646484 12.36888672 -4 12 C-4.495 10.515 -4.495 10.515 -5 9 C-9.95 8.01 -9.95 8.01 -15 7 C-15 5.02 -15 3.04 -15 1 C-12.69 1.33 -10.38 1.66 -8 2 C-8 2.66 -8 3.32 -8 4 C-4.7 3.67 -1.4 3.34 2 3 C1.34 2.67 0.68 2.34 0 2 C0 1.34 0 0.68 0 0 Z " fill="#566061" transform="translate(106,34)"/>
<path d="M0 0 C1.9375 0.1875 1.9375 0.1875 4 1 C4.40992188 1.52851562 4.81984375 2.05703125 5.2421875 2.6015625 C7.0071361 4.32166588 7.0071361 4.32166588 9.91796875 3.85546875 C10.99691406 3.63503906 12.07585938 3.41460937 13.1875 3.1875 C14.27417969 2.97480469 15.36085938 2.76210938 16.48046875 2.54296875 C17.31191406 2.36378906 18.14335938 2.18460938 19 2 C19 4.64 19 7.28 19 10 C18.360625 10.28875 17.72125 10.5775 17.0625 10.875 C14.84793921 11.82823451 14.84793921 11.82823451 14 14 C10.9375 14.625 10.9375 14.625 8 15 C9.02154175 15.03758423 9.02154175 15.03758423 10.0637207 15.07592773 C13.14683755 15.19190952 16.22965046 15.31462616 19.3125 15.4375 C20.9202832 15.49647461 20.9202832 15.49647461 22.56054688 15.55664062 C24.10258789 15.61948242 24.10258789 15.61948242 25.67578125 15.68359375 C26.62364502 15.72025146 27.57150879 15.75690918 28.5480957 15.79467773 C31 16 31 16 34 17 C34 17.66 34 18.32 34 19 C35.32 19.66 36.64 20.32 38 21 C38 21.66 38 22.32 38 23 C44.90434012 22.3708082 44.90434012 22.3708082 50.125 18.375 C50.41375 17.59125 50.7025 16.8075 51 16 C51.66 16.33 52.32 16.66 53 17 C52.34 19.31 51.68 21.62 51 24 C42.84187905 25.14412672 36.9096965 25.91651482 30 21 C29.505 19.02 29.505 19.02 29 17 C16.79 17 4.58 17 -8 17 C-5.49316923 13.23975384 -3.13506066 12.60807914 1 11 C-0.0209375 10.1646875 -0.0209375 10.1646875 -1.0625 9.3125 C-3 7 -3 7 -2.875 4.375 C-2 2 -2 2 0 0 Z " fill="#5E6766" transform="translate(50,34)"/>
<path d="M0 0 C0.33 0 0.66 0 1 0 C1 1.98 1 3.96 1 6 C2.8871875 6.1546875 2.8871875 6.1546875 4.8125 6.3125 C8.66897347 6.62860438 8.66897347 6.62860438 10.28125 8.4375 C12.95985236 10.87259305 16.22813554 11.09640411 19.6875 11.6875 C20.38939453 11.81705078 21.09128906 11.94660156 21.81445312 12.08007812 C23.54107423 12.39721261 25.27031635 12.70001797 27 13 C27 13.33 27 13.66 27 14 C20.73 14.33 14.46 14.66 8 15 C7.34 16.32 6.68 17.64 6 19 C-1.4659249 19.36717663 -1.4659249 19.36717663 -4 17.625 C-5 16 -5 16 -5 14 C-12.59 14 -20.18 14 -28 14 C-28 13.67 -28 13.34 -28 13 C-26.90300781 12.89042969 -25.80601563 12.78085937 -24.67578125 12.66796875 C-23.22128484 12.50844334 -21.76686137 12.34825187 -20.3125 12.1875 C-19.2306543 12.08211914 -19.2306543 12.08211914 -18.12695312 11.97460938 C-13.68243215 11.46724397 -10.76045159 10.57859538 -7 8 C-5.01548229 7.28856912 -3.01797888 6.61008664 -1 6 C-0.67 4.02 -0.34 2.04 0 0 Z " fill="#FBFBF9" transform="translate(90,35)"/>
<path d="M0 0 C1.9375 0.1875 1.9375 0.1875 4 1 C4.40992188 1.52851562 4.81984375 2.05703125 5.2421875 2.6015625 C7.0071361 4.32166588 7.0071361 4.32166588 9.91796875 3.85546875 C10.99691406 3.63503906 12.07585938 3.41460937 13.1875 3.1875 C14.27417969 2.97480469 15.36085938 2.76210938 16.48046875 2.54296875 C17.31191406 2.36378906 18.14335938 2.18460938 19 2 C19 2.99 19 3.98 19 5 C18.16855469 5.39832031 17.33710937 5.79664063 16.48046875 6.20703125 C15.39378906 6.73683594 14.30710937 7.26664063 13.1875 7.8125 C11.56908203 8.59560547 11.56908203 8.59560547 9.91796875 9.39453125 C7.3892531 10.78583263 5.94670499 11.95975963 4 14 C0.52674819 15.1577506 -2.36067448 15.06866652 -6 15 C-5.401875 14.71125 -4.80375 14.4225 -4.1875 14.125 C-1.80672208 12.95257974 -1.80672208 12.95257974 1 11 C0.319375 10.443125 -0.36125 9.88625 -1.0625 9.3125 C-3 7 -3 7 -2.875 4.375 C-2 2 -2 2 0 0 Z " fill="#374045" transform="translate(50,34)"/>
<path d="M0 0 C1.65 0 3.3 0 5 0 C3.125 5.75 3.125 5.75 2 8 C2.99 8 3.98 8 5 8 C5 8.99 5 9.98 5 11 C6.94009522 12.70532323 6.94009522 12.70532323 9 14 C7.41590006 13.88512252 5.83271037 13.75765492 4.25 13.625 C2.92742187 13.52058594 2.92742187 13.52058594 1.578125 13.4140625 C-0.99066382 13.00149945 -2.75841015 12.28839043 -5 11 C-5 10.34 -5 9.68 -5 9 C-8.3 8.34 -11.6 7.68 -15 7 C-15 5.02 -15 3.04 -15 1 C-12.69 1.33 -10.38 1.66 -8 2 C-8 2.66 -8 3.32 -8 4 C-4.7 3.67 -1.4 3.34 2 3 C1.34 2.67 0.68 2.34 0 2 C0 1.34 0 0.68 0 0 Z " fill="#BDBBAD" transform="translate(106,34)"/>
<path d="M0 0 C2.64 0 5.28 0 8 0 C8 0.66 8 1.32 8 2 C8.99 1.67 9.98 1.34 11 1 C11 1.66 11 2.32 11 3 C9.35 3 7.7 3 6 3 C6.33 3.66 6.66 4.32 7 5 C9.70599842 5.47597366 12.33595404 5.84093629 15.0625 6.125 C15.82111328 6.21136719 16.57972656 6.29773437 17.36132812 6.38671875 C19.23996986 6.59939517 21.11988636 6.80075459 23 7 C23.33 7.99 23.66 8.98 24 10 C24.99 10.33 25.98 10.66 27 11 C26 12 26 12 23.71484375 12.09765625 C22.34005859 12.08025391 22.34005859 12.08025391 20.9375 12.0625 C20.01839844 12.05347656 19.09929687 12.04445313 18.15234375 12.03515625 C17.44207031 12.02355469 16.73179688 12.01195312 16 12 C16 11.34 16 10.68 16 10 C15.0925 10.061875 14.185 10.12375 13.25 10.1875 C10 10 10 10 8.1875 8.5 C4.73170417 6.13031143 1.06909954 6.76524426 -3 7 C-3 5.68 -3 4.36 -3 3 C-2.34 3 -1.68 3 -1 3 C-0.67 2.01 -0.34 1.02 0 0 Z " fill="#3C4547" transform="translate(82,26)"/>
<path d="M0 0 C0.66 0 1.32 0 2 0 C2 1.32 2 2.64 2 4 C2.99 4 3.98 4 5 4 C5.33 3.01 5.66 2.02 6 1 C6 2.32 6 3.64 6 5 C10.47427924 5.08948558 14.60563789 4.85743651 19 4 C19 3.34 19 2.68 19 2 C19.66 2 20.32 2 21 2 C21.0625 4.25 21.0625 4.25 20 7 C17.13713032 8.69982887 14.11140098 9.83536551 11 11 C10.01 11.495 10.01 11.495 9 12 C6.62876754 12.23029956 4.25258057 12.41119942 1.875 12.5625 C0.59367187 12.64628906 -0.68765625 12.73007812 -2.0078125 12.81640625 C-2.99523437 12.87699219 -3.98265625 12.93757813 -5 13 C-4.67 12.01 -4.34 11.02 -4 10 C-2.68 9.67 -1.36 9.34 0 9 C0 6.03 0 3.06 0 0 Z " fill="#B8B7A7" transform="translate(69,35)"/>
<path d="M0 0 C0.721875 0.61875 1.44375 1.2375 2.1875 1.875 C6.37660135 4.71796326 11.05378061 4.99155539 15.9765625 5.60546875 C18.40868055 5.92283816 20.64453188 6.34511649 23 7 C23.7425 7.185625 24.485 7.37125 25.25 7.5625 C25.8275 7.706875 26.405 7.85125 27 8 C27 8.99 27 9.98 27 11 C27.66 11 28.32 11 29 11 C29 11.66 29 12.32 29 13 C26.56212615 12.8590651 24.12482147 12.71245458 21.6875 12.5625 C20.99720703 12.52318359 20.30691406 12.48386719 19.59570312 12.44335938 C16.52838465 12.25072585 13.93031848 11.97677283 11 11 C11 10.34 11 9.68 11 9 C10.21625 8.855625 9.4325 8.71125 8.625 8.5625 C6 8 6 8 4 7 C4 6.34 4 5.68 4 5 C2.68 4.67 1.36 4.34 0 4 C0 2.68 0 1.36 0 0 Z " fill="#243241" transform="translate(132,41)"/>
<path d="M0 0 C1.86688477 0.03480469 1.86688477 0.03480469 3.77148438 0.0703125 C5.5571582 0.1321875 5.5571582 0.1321875 7.37890625 0.1953125 C9.01388062 0.24582764 9.01388062 0.24582764 10.68188477 0.29736328 C13.4375 0.875 13.4375 0.875 15.18847656 2.87939453 C15.80674316 3.86721924 15.80674316 3.86721924 16.4375 4.875 C18.4691566 5.56350829 18.4691566 5.56350829 20.625 5.625 C21.883125 5.7075 23.14125 5.79 24.4375 5.875 C24.581875 5.235625 24.72625 4.59625 24.875 3.9375 C25.4375 1.875 25.4375 1.875 26.4375 0.875 C30.36121086 0.46217919 34.30923087 0.35785025 38.25 0.1875 C39.35666016 0.12755859 40.46332031 0.06761719 41.60351562 0.00585938 C43.20163086 -0.0647168 43.20163086 -0.0647168 44.83203125 -0.13671875 C45.81018799 -0.18272217 46.78834473 -0.22872559 47.79614258 -0.27612305 C50.5455222 -0.1188196 52.10373493 0.46134003 54.4375 1.875 C53.69588623 1.87910889 52.95427246 1.88321777 52.19018555 1.88745117 C48.8343092 1.92031841 45.48026512 1.99095525 42.125 2.0625 C40.95775391 2.06830078 39.79050781 2.07410156 38.58789062 2.08007812 C37.46962891 2.10908203 36.35136719 2.13808594 35.19921875 2.16796875 C34.16756592 2.1836792 33.13591309 2.19938965 32.07299805 2.21557617 C29.20735947 2.62641358 29.20735947 2.62641358 27.70239258 5.35668945 C27.28497803 6.18773193 26.86756348 7.01877441 26.4375 7.875 C23.24463177 9.47143412 19.90329307 9.38870451 16.4375 8.875 C13.9375 7 13.9375 7 12.4375 4.875 C12.4375 4.215 12.4375 3.555 12.4375 2.875 C-2.4125 2.38 -2.4125 2.38 -17.5625 1.875 C-11.73039828 -1.04105086 -6.41507823 -0.23994059 0 0 Z " fill="#9E9BA1" transform="translate(71.5625,48.125)"/>
<path d="M0 0 C2.49361571 1.20381448 4.68143083 2.45428722 7 4 C3.67262 6.091496 0.70500184 7.51799926 -3 9 C10.86 9.495 10.86 9.495 25 10 C25 10.33 25 10.66 25 11 C10.81 11.33 -3.38 11.66 -18 12 C-18 11.34 -18 10.68 -18 10 C-14.7 9.67 -11.4 9.34 -8 9 C-8 8.01 -8 7.02 -8 6 C-6.865625 5.566875 -5.73125 5.13375 -4.5625 4.6875 C-2.7990625 3.8521875 -2.7990625 3.8521875 -1 3 C-0.67 2.01 -0.34 1.02 0 0 Z " fill="#32374C" transform="translate(46,41)"/>
<path d="M0 0 C7.66897347 0.62860438 7.66897347 0.62860438 9.28125 2.4375 C11.95985236 4.87259305 15.22813554 5.09640411 18.6875 5.6875 C19.38939453 5.81705078 20.09128906 5.94660156 20.81445312 6.08007812 C22.54107423 6.39721261 24.27031635 6.70001797 26 7 C26 7.33 26 7.66 26 8 C19.73 8.33 13.46 8.66 7 9 C6.34 10.32 5.68 11.64 5 13 C-0.37305699 13.35233161 -0.37305699 13.35233161 -3 13 C-5 11 -5 11 -6 9 C-5.278125 9.144375 -4.55625 9.28875 -3.8125 9.4375 C-2.4203125 9.7159375 -2.4203125 9.7159375 -1 10 C0.66666667 10.33333333 2.33333333 10.66666667 4 11 C4.66 8.69 5.32 6.38 6 4 C3.03 3.505 3.03 3.505 0 3 C0 2.01 0 1.02 0 0 Z " fill="#E6E5E3" transform="translate(91,41)"/>
<path d="M0 0 C3.375 -0.125 3.375 -0.125 7 0 C9 2 9 2 9.125 4.375 C9.08375 5.24125 9.0425 6.1075 9 7 C9 8.32 9 9.64 9 11 C9 11.66 9 12.32 9 13 C8.01 12.67 7.02 12.34 6 12 C6 11.34 6 10.68 6 10 C4.68 10 3.36 10 2 10 C2 10.99 2 11.98 2 13 C1.34 13 0.68 13 0 13 C0 8.71 0 4.42 0 0 Z " fill="#D7D9DA" transform="translate(45,15)"/>
<path d="M0 0 C1.4540625 0.0309375 1.4540625 0.0309375 2.9375 0.0625 C1.9475 0.5575 1.9475 0.5575 0.9375 1.0625 C0.9375 2.0525 0.9375 3.0425 0.9375 4.0625 C-2.3625 4.3925 -5.6625 4.7225 -9.0625 5.0625 C-9.0625 5.7225 -9.0625 6.3825 -9.0625 7.0625 C-14.82331841 8.3607126 -20.14989655 9.31956972 -26.0625 9.0625 C-25.4025 8.0725 -24.7425 7.0825 -24.0625 6.0625 C-22.07421875 5.69140625 -22.07421875 5.69140625 -19.75 5.625 C-15.28872722 5.29717484 -13.49879195 3.94155542 -10.0625 1.0625 C-6.8125 0.875 -6.8125 0.875 -4.0625 1.0625 C-3.0625 0.0625 -3.0625 0.0625 0 0 Z " fill="#14232F" transform="translate(37.0625,45.9375)"/>
<path d="M0 0 C0.66 0 1.32 0 2 0 C2 0.99 2 1.98 2 3 C4.97 3 7.94 3 11 3 C11 2.34 11 1.68 11 1 C12.32 1.33 13.64 1.66 15 2 C14.67 2.66 14.34 3.32 14 4 C13.34 4 12.68 4 12 4 C12 4.66 12 5.32 12 6 C7.07262981 7.97094808 3.21979128 8.1799928 -2 8 C-2 7.34 -2 6.68 -2 6 C-2.99 6 -3.98 6 -5 6 C-5 4.68 -5 3.36 -5 2 C-5.66 1.67 -6.32 1.34 -7 1 C-5.5459375 1.0309375 -5.5459375 1.0309375 -4.0625 1.0625 C-1.12534105 1.35618499 -1.12534105 1.35618499 0 0 Z " fill="#646A68" transform="translate(76,33)"/>
<path d="M0 0 C4.23429756 1.31061591 8.07407404 2.94356259 12 5 C12 5.66 12 6.32 12 7 C13.13179687 7.12117188 14.26359375 7.24234375 15.4296875 7.3671875 C16.91151031 7.53600276 18.39327842 7.70529855 19.875 7.875 C20.62136719 7.95363281 21.36773437 8.03226563 22.13671875 8.11328125 C27.7734375 8.7734375 27.7734375 8.7734375 30 11 C21.75 11 13.5 11 5 11 C5 10.67 5 10.34 5 10 C9.455 9.505 9.455 9.505 14 9 C11.9271875 8.566875 11.9271875 8.566875 9.8125 8.125 C6.3796194 7.36695066 3.21583233 6.45231137 0 5 C0.99 4.67 1.98 4.34 3 4 C3 3.34 3 2.68 3 2 C2.01 2 1.02 2 0 2 C0 1.34 0 0.68 0 0 Z " fill="#838583" transform="translate(108,40)"/>
<path d="M0 0 C3.27081471 -0.02902429 6.5415963 -0.04680684 9.8125 -0.0625 C10.74126953 -0.07087891 11.67003906 -0.07925781 12.62695312 -0.08789062 C13.51962891 -0.09111328 14.41230469 -0.09433594 15.33203125 -0.09765625 C16.56530151 -0.10551147 16.56530151 -0.10551147 17.82348633 -0.11352539 C20 0 20 0 23 1 C23 1.66 23 2.32 23 3 C24.32 3.66 25.64 4.32 27 5 C27 5.66 27 6.32 27 7 C33.90434012 6.3708082 33.90434012 6.3708082 39.125 2.375 C39.41375 1.59125 39.7025 0.8075 40 0 C40.66 0.33 41.32 0.66 42 1 C41.34 3.31 40.68 5.62 40 8 C31.84187905 9.14412672 25.9096965 9.91651482 19 5 C18.67 3.68 18.34 2.36 18 1 C12.06 1 6.12 1 0 1 C0 0.67 0 0.34 0 0 Z " fill="#4C4B62" transform="translate(61,50)"/>
<path d="M0 0 C0 0.66 0 1.32 0 2 C0.66 2 1.32 2 2 2 C2 3.65 2 5.3 2 7 C1.34 7 0.68 7 0 7 C-0.33 6.01 -0.66 5.02 -1 4 C-2.32 4 -3.64 4 -5 4 C-5 4.99 -5 5.98 -5 7 C-5.66 7 -6.32 7 -7 7 C-7.4021875 6.0409375 -7.4021875 6.0409375 -7.8125 5.0625 C-8.88667752 2.66868314 -8.88667752 2.66868314 -12 2 C-12 3.65 -12 5.3 -12 7 C-13.32 7 -14.64 7 -16 7 C-16.66 5.68 -17.32 4.36 -18 3 C-13.65345107 -1.34654893 -5.83622231 -0.11910658 0 0 Z " fill="#37384D" transform="translate(106,59)"/>
<path d="M0 0 C0.33 0 0.66 0 1 0 C1 4.62 1 9.24 1 14 C3.31 14 5.62 14 8 14 C7.67 16.31 7.34 18.62 7 21 C2.8803623 22.29243536 -0.66831683 23.26252625 -5 23 C-5.33 23.66 -5.66 24.32 -6 25 C-5.9375 23.1875 -5.9375 23.1875 -5 21 C-1.4375 19.25 -1.4375 19.25 2 18 C1.34 17.01 0.68 16.02 0 15 C-0.14221065 12.39754502 -0.18802932 9.90882316 -0.125 7.3125 C-0.11597656 6.61060547 -0.10695313 5.90871094 -0.09765625 5.18554688 C-0.07413704 3.45688475 -0.03826713 1.72839855 0 0 Z " fill="#29333C" transform="translate(62,15)"/>
<path d="M0 0 C3.29240875 2.79854744 5.03562946 6.20673275 7 10 C7 10.99 7 11.98 7 13 C6.34 13 5.68 13 5 13 C5 12.34 5 11.68 5 11 C3.741875 11.144375 2.48375 11.28875 1.1875 11.4375 C0.12595703 11.55931641 0.12595703 11.55931641 -0.95703125 11.68359375 C-3.19396393 11.97170735 -3.19396393 11.97170735 -6 13 C-4.58707905 8.1725201 -2.57025846 4.2837641 0 0 Z " fill="#8D9194" transform="translate(85,15)"/>
<path d="M0 0 C0.804375 0.474375 1.60875 0.94875 2.4375 1.4375 C7.33461074 3.58535559 11.73075516 3.25314877 17 3 C15 5 15 5 11.5625 5.3125 C10.386875 5.539375 9.21125 5.76625 8 6 C6.3553326 8.46326712 6.3553326 8.46326712 5 11 C2.375 11.875 2.375 11.875 0 12 C-1 11 -1 11 -1.0625 8.4375 C-1.041875 7.633125 -1.02125 6.82875 -1 6 C0.32 5.67 1.64 5.34 3 5 C1.35 3.68 -0.3 2.36 -2 1 C-1.34 0.67 -0.68 0.34 0 0 Z " fill="#383854" transform="translate(82,55)"/>
<path d="M0 0 C3.3 0 6.6 0 10 0 C10 0.66 10 1.32 10 2 C7.36 2 4.72 2 2 2 C2 3.65 2 5.3 2 7 C3.98 7 5.96 7 8 7 C8 7.66 8 8.32 8 9 C6.02 9 4.04 9 2 9 C2 9.66 2 10.32 2 11 C4.64 11 7.28 11 10 11 C10 11.66 10 12.32 10 13 C6.7 13 3.4 13 0 13 C0 8.71 0 4.42 0 0 Z " fill="#C4C6C7" transform="translate(144,15)"/>
<path d="M0 0 C2.93453261 0.36681658 3.86437246 0.86437246 6 3 C5.67028521 6.29714793 5.3773161 7.6226839 3 10 C0.06546739 9.63318342 -0.86437246 9.13562754 -3 7 C-2.67028521 3.70285207 -2.3773161 2.3773161 0 0 Z " fill="#A7ADB2" transform="translate(50,34)"/>
<path d="M0 0 C6.40659341 0.6043956 6.40659341 0.6043956 8.875 2.25 C10 4 10 4 11 9 C6.71 8.34 2.42 7.68 -2 7 C-2 6.34 -2 5.68 -2 5 C-0.35 5 1.3 5 3 5 C3 4.34 3 3.68 3 3 C1.35 3 -0.3 3 -2 3 C-1.34 2.01 -0.68 1.02 0 0 Z " fill="#202931" transform="translate(67,19)"/>
<path d="M0 0 C2.97 0 5.94 0 9 0 C9 0.66 9 1.32 9 2 C6.69 2 4.38 2 2 2 C2 3.65 2 5.3 2 7 C3.65 7 5.3 7 7 7 C7 7.66 7 8.32 7 9 C5.35 9 3.7 9 2 9 C2 9.66 2 10.32 2 11 C4.31 11 6.62 11 9 11 C9 11.66 9 12.32 9 13 C6.03 13 3.06 13 0 13 C0 8.71 0 4.42 0 0 Z " fill="#D6D8D9" transform="translate(63,15)"/>
<path d="M0 0 C2.93453261 0.36681658 3.86437246 0.86437246 6 3 C5.44444444 7.55555556 5.44444444 7.55555556 4 9 C1.5625 9.1875 1.5625 9.1875 -1 9 C-1.66 8.34 -2.32 7.68 -3 7 C-2.67028521 3.70285207 -2.3773161 2.3773161 0 0 Z " fill="#B1B8BB" transform="translate(127,34)"/>
<path d="M0 0 C0.33 0.33 0.66 0.66 1 1 C2.34747084 1.23075082 3.70377565 1.41153063 5.0625 1.5625 C6.361875 1.706875 7.66125 1.85125 9 2 C9 2.66 9 3.32 9 4 C9.99 3.67 10.98 3.34 12 3 C12.33 3.99 12.66 4.98 13 6 C6.4 5.34 -0.2 4.68 -7 4 C-7.33 3.01 -7.66 2.02 -8 1 C-2.25 -1.125 -2.25 -1.125 0 0 Z " fill="#1F2931" transform="translate(96,28)"/>
<path d="M0 0 C0.33 0.66 0.66 1.32 1 2 C-2.79692186 4.82561627 -5.18569279 6.56638908 -10 6 C-10 6.66 -10 7.32 -10 8 C-15.61 8 -21.22 8 -27 8 C-27 7.67 -27 7.34 -27 7 C-25.90300781 6.89042969 -24.80601563 6.78085937 -23.67578125 6.66796875 C-22.22128484 6.50844334 -20.76686137 6.34825187 -19.3125 6.1875 C-18.59126953 6.11724609 -17.87003906 6.04699219 -17.12695312 5.97460938 C-12.68243215 5.46724397 -9.76045159 4.57859538 -6 2 C-4.01548229 1.28856912 -2.01797888 0.61008664 0 0 Z " fill="#E3DECA" transform="translate(89,41)"/>
<path d="M0 0 C3.63 0 7.26 0 11 0 C11 0.66 11 1.32 11 2 C9.68 2 8.36 2 7 2 C7 5.63 7 9.26 7 13 C6.01 13 5.02 13 4 13 C4 9.37 4 5.74 4 2 C2.68 2 1.36 2 0 2 C0 1.34 0 0.68 0 0 Z " fill="#BBBDC0" transform="translate(97,15)"/>
<path d="M0 0 C3.25 1.375 3.25 1.375 6 3 C6 3.66 6 4.32 6 5 C8.31 5.66 10.62 6.32 13 7 C13 7.66 13 8.32 13 9 C7.06 9 1.12 9 -5 9 C-5 8.67 -5 8.34 -5 8 C0.445 7.505 0.445 7.505 6 7 C2.7 5.35 -0.6 3.7 -4 2 C-2.68 1.34 -1.36 0.68 0 0 Z " fill="#3E4356" transform="translate(130,43)"/>
<path d="M0 0 C2.31 0.33 4.62 0.66 7 1 C7 1.66 7 2.32 7 3 C10.3 3 13.6 3 17 3 C15.625 5.5 15.625 5.5 14 8 C13.34 8 12.68 8 12 8 C12 7.34 12 6.68 12 6 C10.02 6 8.04 6 6 6 C6 5.34 6 4.68 6 4 C4.35 3.67 2.7 3.34 1 3 C0.67 2.01 0.34 1.02 0 0 Z " fill="#81847E" transform="translate(91,35)"/>
<path d="M0 0 C5.1967993 -0.20379605 9.19977675 -0.20550798 14 2 C15.9924325 2.37593066 17.9918674 2.71979545 20 3 C20 3.99 20 4.98 20 6 C13.51570037 5.38827362 7.13473656 4.25335666 1 2 C0.67 1.34 0.34 0.68 0 0 Z " fill="#11212D" transform="translate(139,46)"/>
<path d="M0 0 C0 0.33 0 0.66 0 1 C-8.91 1 -17.82 1 -27 1 C-27.33 2.32 -27.66 3.64 -28 5 C-29 6 -29 6 -30.84765625 6.09765625 C-32.8984375 6.06510417 -34.94921875 6.03255208 -37 6 C-37 5.67 -37 5.34 -37 5 C-34.69 5 -32.38 5 -30 5 C-29.855625 4.360625 -29.71125 3.72125 -29.5625 3.0625 C-29 1 -29 1 -28 0 C-24.99410364 -0.2683836 -22.01214713 -0.47099549 -19 -0.625 C-18.17371094 -0.6765625 -17.34742187 -0.728125 -16.49609375 -0.78125 C-10.86350663 -1.08094947 -5.59040565 -0.7551556 0 0 Z " fill="#B5B1B0" transform="translate(126,49)"/>
<path d="M0 0 C2.49361571 1.20381448 4.68143083 2.45428722 7 4 C2.3845737 7.38464596 -2.48086654 8.08907506 -8 9 C-8 8.01 -8 7.02 -8 6 C-6.865625 5.566875 -5.73125 5.13375 -4.5625 4.6875 C-2.7990625 3.8521875 -2.7990625 3.8521875 -1 3 C-0.67 2.01 -0.34 1.02 0 0 Z " fill="#24333C" transform="translate(46,41)"/>
<path d="M0 0 C3.75376152 1.25125384 4.24073289 2.5652404 6 6 C6 6.66 6 7.32 6 8 C7.98180213 6.20694093 9.20358221 4.6498386 10.5625 2.3125 C11.2740625 1.1678125 11.2740625 1.1678125 12 0 C12.66 0 13.32 0 14 0 C12.43358249 4.30764815 10.31663844 8.06171464 8 12 C7.34 12 6.68 12 6 12 C4.4921875 9.8828125 4.4921875 9.8828125 2.875 7.125 C2.33617188 6.22007813 1.79734375 5.31515625 1.2421875 4.3828125 C0 2 0 2 0 0 Z " fill="#D6D7D8" transform="translate(124,15)"/>
<path d="M0 0 C7.66897347 0.62860438 7.66897347 0.62860438 9.28125 2.4375 C11.95985236 4.87259305 15.22813554 5.09640411 18.6875 5.6875 C19.38939453 5.81705078 20.09128906 5.94660156 20.81445312 6.08007812 C22.54107423 6.39721261 24.27031635 6.70001797 26 7 C26 7.33 26 7.66 26 8 C20.72 8 15.44 8 10 8 C9.34 6.35 8.68 4.7 8 3 C5.02019764 2.25335353 5.02019764 2.25335353 2 2 C1.34 1.34 0.68 0.68 0 0 Z " fill="#DFDACA" transform="translate(91,41)"/>
<path d="M0 0 C1.32 0.33 2.64 0.66 4 1 C3.67 1.66 3.34 2.32 3 3 C2.34 3 1.68 3 1 3 C1 3.66 1 4.32 1 5 C-3.92737019 6.97094808 -7.78020872 7.1799928 -13 7 C-12.34 5.68 -11.68 4.36 -11 3 C-7.37 3 -3.74 3 0 3 C0 2.01 0 1.02 0 0 Z " fill="#868880" transform="translate(87,34)"/>
<path d="M0 0 C0.66 0 1.32 0 2 0 C2 1.65 2 3.3 2 5 C3.32 5 4.64 5 6 5 C6 3.35 6 1.7 6 0 C6.66 0 7.32 0 8 0 C8 3.3 8 6.6 8 10 C7.34 10 6.68 10 6 10 C6 9.01 6 8.02 6 7 C4.35 7 2.7 7 1 7 C0.67 7.66 0.34 8.32 0 9 C0 6.03 0 3.06 0 0 Z " fill="#A0A4A7" transform="translate(26,34)"/>
<path d="M0 0 C0.66 0 1.32 0 2 0 C2 2.97 2 5.94 2 9 C0.02 7.68 -1.96 6.36 -4 5 C-4 6.65 -4 8.3 -4 10 C-4.66 10 -5.32 10 -6 10 C-6 7.03 -6 4.06 -6 1 C-2 3 -2 3 -1 4 C-0.67 2.68 -0.34 1.36 0 0 Z " fill="#A3A7AB" transform="translate(152,34)"/>
<path d="M0 0 C2.64 0 5.28 0 8 0 C8 0.66 8 1.32 8 2 C6.35 2 4.7 2 3 2 C3 3.32 3 4.64 3 6 C1.02 6.33 -0.96 6.66 -3 7 C-3 5.68 -3 4.36 -3 3 C-2.34 3 -1.68 3 -1 3 C-0.67 2.01 -0.34 1.02 0 0 Z " fill="#1B232B" transform="translate(82,26)"/>
<path d="M0 0 C0.66 0.33 1.32 0.66 2 1 C1.34 3.31 0.68 5.62 0 8 C-2.10094974 8.27573092 -4.20607635 8.51978976 -6.3125 8.75 C-8.07013672 8.95882812 -8.07013672 8.95882812 -9.86328125 9.171875 C-13 9 -13 9 -14.91796875 7.015625 C-15.27503906 6.35046875 -15.63210937 5.6853125 -16 5 C-15.67 4.34 -15.34 3.68 -15 3 C-14.34 4.32 -13.68 5.64 -13 7 C-6.09565988 6.3708082 -6.09565988 6.3708082 -0.875 2.375 C-0.58625 1.59125 -0.2975 0.8075 0 0 Z " fill="#66667C" transform="translate(101,50)"/>
<path d="M0 0 C1.32 0 2.64 0 4 0 C4 0.66 4 1.32 4 2 C4.66 2 5.32 2 6 2 C6 3.65 6 5.3 6 7 C5.34 7 4.68 7 4 7 C3.67 6.01 3.34 5.02 3 4 C1.68 4 0.36 4 -1 4 C-1 4.99 -1 5.98 -1 7 C-1.66 7 -2.32 7 -3 7 C-3.33 5.35 -3.66 3.7 -4 2 C-2.68 2 -1.36 2 0 2 C0 1.34 0 0.68 0 0 Z " fill="#585970" transform="translate(102,59)"/>
<path d="M0 0 C1.32 0 2.64 0 4 0 C4 0.99 4 1.98 4 3 C5.11375 2.95875 6.2275 2.9175 7.375 2.875 C11 3 11 3 13 5 C12.67 5.99 12.34 6.98 12 8 C10.18118176 7.43667573 8.36999528 6.84866086 6.5625 6.25 C5.55316406 5.92515625 4.54382813 5.6003125 3.50390625 5.265625 C1 4 1 4 0.15234375 1.859375 C0.10207031 1.24578125 0.05179687 0.6321875 0 0 Z " fill="#1F2B32" transform="translate(111,32)"/>
<path d="M0 0 C2.72426311 2.35277269 3.8141763 4.62496331 5 8 C4.01 8.495 4.01 8.495 3 9 C2.34 7.68 1.68 6.36 1 5 C0.319375 6.1446875 0.319375 6.1446875 -0.375 7.3125 C-1.53824492 9.23632814 -2.7529415 11.12941224 -4 13 C-4.66 13 -5.32 13 -6 13 C-4.58707905 8.1725201 -2.57025846 4.2837641 0 0 Z " fill="#D6D8DA" transform="translate(85,15)"/>
<path d="M0 0 C0.99 0.99 1.98 1.98 3 3 C-3.27 3 -9.54 3 -16 3 C-15.67 2.34 -15.34 1.68 -15 1 C-10.01200709 0.14000122 -5.06137166 -0.39697033 0 0 Z " fill="#797C7E" transform="translate(58,48)"/>
<path d="M0 0 C2.625 0.9375 2.625 0.9375 5 2 C4.67 3.32 4.34 4.64 4 6 C2.34385343 6.38218767 0.67542976 6.71395102 -1 7 C-2 6 -2 6 -2.0625 3.4375 C-2.041875 2.633125 -2.02125 1.82875 -2 1 C-1.34 0.67 -0.68 0.34 0 0 Z " fill="#434459" transform="translate(83,60)"/>
<path d="M0 0 C0.33 0.66 0.66 1.32 1 2 C3.01943037 2.61461533 3.01943037 2.61461533 5.375 3 C8.67525619 3.60200113 10.11408973 4.07605982 13 6 C13 6.66 13 7.32 13 8 C11.20763933 7.52343588 9.41613103 7.04366502 7.625 6.5625 C6.62726563 6.29566406 5.62953125 6.02882813 4.6015625 5.75390625 C2 5 2 5 0 4 C0 2.68 0 1.36 0 0 Z " fill="#3C454A" transform="translate(111,34)"/>
<path d="M0 0 C0.33 0 0.66 0 1 0 C1 4.62 1 9.24 1 14 C3.31 14 5.62 14 8 14 C6.68 15.32 5.36 16.64 4 18 C3.01 17.67 2.02 17.34 1 17 C-0.53266582 13.93466836 -0.10276471 10.73245728 -0.0625 7.375 C-0.05798828 6.66859375 -0.05347656 5.9621875 -0.04882812 5.234375 C-0.03703875 3.48954725 -0.01910324 1.744763 0 0 Z " fill="#2F373F" transform="translate(62,15)"/>
<path d="M0 0 C0.66 0 1.32 0 2 0 C1.75 2.375 1.75 2.375 1 5 C-1.89810116 7.09862498 -3.28378861 7 -7 7 C-6.67 6.01 -6.34 5.02 -6 4 C-4.02 3.67 -2.04 3.34 0 3 C0 2.01 0 1.02 0 0 Z " fill="#9D9E91" transform="translate(71,41)"/>
<path d="M0 0 C0.33 0.66 0.66 1.32 1 2 C1.99 2.33 2.98 2.66 4 3 C3 4 3 4 0.71484375 4.09765625 C-0.65994141 4.08025391 -0.65994141 4.08025391 -2.0625 4.0625 C-2.98160156 4.05347656 -3.90070313 4.04445313 -4.84765625 4.03515625 C-5.55792969 4.02355469 -6.26820312 4.01195312 -7 4 C-7 3.34 -7 2.68 -7 2 C-8.98 2 -10.96 2 -13 2 C-13 1.67 -13 1.34 -13 1 C-8.71 1.33 -4.42 1.66 0 2 C0 1.34 0 0.68 0 0 Z " fill="#616765" transform="translate(105,34)"/>
<path d="M0 0 C0.66 0 1.32 0 2 0 C2 1.32 2 2.64 2 4 C2.99 4 3.98 4 5 4 C5.33 3.01 5.66 2.02 6 1 C5.67 2.98 5.34 4.96 5 7 C4.01 6.67 3.02 6.34 2 6 C2 6.99 2 7.98 2 9 C1.34 9 0.68 9 0 9 C0 6.03 0 3.06 0 0 Z " fill="#CDD0CE" transform="translate(69,35)"/>
<path d="M0 0 C3.3 0 6.6 0 10 0 C5.5942029 3.30434783 5.5942029 3.30434783 2 4 C1.01 4.33 0.02 4.66 -1 5 C-0.67 3.35 -0.34 1.7 0 0 Z " fill="#3E3C57" transform="translate(103,50)"/>
<path d="M0 0 C0 0.66 0 1.32 0 2 C-0.639375 2.28875 -1.27875 2.5775 -1.9375 2.875 C-4.15206079 3.82823451 -4.15206079 3.82823451 -5 6 C-6.98 6 -8.96 6 -11 6 C-7.87921364 2.5324596 -4.85451611 0 0 0 Z " fill="#7D827B" transform="translate(69,42)"/>
<path d="M0 0 C0.9075 0.53625 1.815 1.0725 2.75 1.625 C2.75 2.285 2.75 2.945 2.75 3.625 C3.41 3.955 4.07 4.285 4.75 4.625 C0.18545749 4.08160208 -3.2228176 2.83036179 -7.25 0.625 C-4.22502149 -1.58556122 -3.57040661 -1.51055664 0 0 Z " fill="#33414A" transform="translate(133.25,44.375)"/>
<path d="M0 0 C0.33 0.66 0.66 1.32 1 2 C-0.65 2 -2.3 2 -4 2 C-3.505 2.45375 -3.01 2.9075 -2.5 3.375 C-1 5 -1 5 -1 7 C-3.64 6.67 -6.28 6.34 -9 6 C-8.34 5.67 -7.68 5.34 -7 5 C-7 3.68 -7 2.36 -7 1 C-3.535 0.505 -3.535 0.505 0 0 Z " fill="#323C43" transform="translate(92,27)"/>
<path d="M0 0 C1.98 0.495 1.98 0.495 4 1 C3.67 2.65 3.34 4.3 3 6 C1.68 5.67 0.36 5.34 -1 5 C-0.67 3.35 -0.34 1.7 0 0 Z " fill="#242D36" transform="translate(127,36)"/>
<path d="M0 0 C-0.99 0.495 -0.99 0.495 -2 1 C-2 1.66 -2 2.32 -2 3 C-4.97 3 -7.94 3 -11 3 C-11 2.34 -11 1.68 -11 1 C-3.375 -1.125 -3.375 -1.125 0 0 Z " fill="#50595A" transform="translate(89,33)"/>
<path d="M0 0 C0.33 0.66 0.66 1.32 1 2 C1.99 1.67 2.98 1.34 4 1 C4.99 1.33 5.98 1.66 7 2 C7 2.66 7 3.32 7 4 C4.03 4 1.06 4 -2 4 C-2.33 3.01 -2.66 2.02 -3 1 C-2.01 0.67 -1.02 0.34 0 0 Z " fill="#141F2D" transform="translate(164,51)"/>
<path d="M0 0 C0.66 0.33 1.32 0.66 2 1 C-0.05233685 3.2477975 -1.00667261 4.0022242 -4 5 C-6.33299825 5.03954234 -8.66708189 5.04401732 -11 5 C-7.41161963 3.13404221 -3.77010767 1.46615298 0 0 Z " fill="#445256" transform="translate(55,44)"/>
<path d="M0 0 C-1.62249941 0.83819158 -3.24808497 1.6704116 -4.875 2.5 C-6.23238281 3.19609375 -6.23238281 3.19609375 -7.6171875 3.90625 C-10 5 -10 5 -12 5 C-11 2 -11 2 -7.6875 0.25 C-4.06346006 -0.97848812 -3.3741029 -1.10235591 0 0 Z " fill="#485153" transform="translate(69,39)"/>
<path d="M0 0 C1.65 0 3.3 0 5 0 C3.125 5.75 3.125 5.75 2 8 C2.99 8.33 3.98 8.66 5 9 C3.35 9 1.7 9 0 9 C0.66 7.02 1.32 5.04 2 3 C1.34 2.67 0.68 2.34 0 2 C0 1.34 0 0.68 0 0 Z " fill="#CED1D0" transform="translate(106,34)"/>
<path d="M0 0 C2.97 0 5.94 0 9 0 C9 0.99 9 1.98 9 3 C8.01 3.33 7.02 3.66 6 4 C6 3.34 6 2.68 6 2 C4.02 2 2.04 2 0 2 C0 1.34 0 0.68 0 0 Z " fill="#9C9D93" transform="translate(97,39)"/>
<path d="M0 0 C0.66 0.66 1.32 1.32 2 2 C1.01 2 0.02 2 -1 2 C-1 2.66 -1 3.32 -1 4 C-2.134375 4.12375 -3.26875 4.2475 -4.4375 4.375 C-6.2009375 4.684375 -6.2009375 4.684375 -8 5 C-8.33 5.66 -8.66 6.32 -9 7 C-8.75390625 5.109375 -8.75390625 5.109375 -8 3 C-6.15234375 1.953125 -6.15234375 1.953125 -3.9375 1.25 C-2.83728516 0.88648438 -2.83728516 0.88648438 -1.71484375 0.515625 C-1.14894531 0.34546875 -0.58304688 0.1753125 0 0 Z " fill="#1D2830" transform="translate(65,33)"/>
<path d="M0 0 C2.475 0.495 2.475 0.495 5 1 C5 2.32 5 3.64 5 5 C3.35 5 1.7 5 0 5 C0 3.35 0 1.7 0 0 Z " fill="#121317" transform="translate(47,17)"/>
<path d="M0 0 C1.32 0.33 2.64 0.66 4 1 C4 2.32 4 3.64 4 5 C2.68 5 1.36 5 0 5 C0 3.35 0 1.7 0 0 Z " fill="#646470" transform="translate(72,61)"/>
<path d="M0 0 C1.98 0.495 1.98 0.495 4 1 C4 2.32 4 3.64 4 5 C2.35 5 0.7 5 -1 5 C-0.67 3.35 -0.34 1.7 0 0 Z " fill="#182028" transform="translate(50,36)"/>
<path d="M0 0 C0.66 0 1.32 0 2 0 C0.55049545 3.7910119 -1.15172566 7.3874638 -3 11 C-3.33 10.34 -3.66 9.68 -4 9 C-4.66 8.67 -5.32 8.34 -6 8 C-5.566875 7.608125 -5.13375 7.21625 -4.6875 6.8125 C-2.85439739 4.97761098 -2.85439739 4.97761098 -1.4375 2.3125 C-0.7259375 1.1678125 -0.7259375 1.1678125 0 0 Z " fill="#CBCCCE" transform="translate(136,15)"/>
<path d="M0 0 C0.99 0.33 1.98 0.66 3 1 C2.67 2.65 2.34 4.3 2 6 C0.68 5.34 -0.64 4.68 -2 4 C-1.34 2.68 -0.68 1.36 0 0 Z " fill="#646476" transform="translate(114,61)"/>
<path d="M0 0 C0.99 0 1.98 0 3 0 C3.33 1.32 3.66 2.64 4 4 C2.02 4.99 2.02 4.99 0 6 C-0.38218767 4.34385343 -0.71395102 2.67542976 -1 1 C-0.67 0.67 -0.34 0.34 0 0 Z " fill="#61626E" transform="translate(64,61)"/>
<path d="M0 0 C0.66 0.33 1.32 0.66 2 1 C-2.18461538 5.92307692 -2.18461538 5.92307692 -6.3125 6.3125 C-7.199375 6.209375 -8.08625 6.10625 -9 6 C-9 5.34 -9 4.68 -9 4 C-7.88625 3.71125 -6.7725 3.4225 -5.625 3.125 C-1.99708908 2.30758671 -1.99708908 2.30758671 0 0 Z " fill="#F6F2E4" transform="translate(88,43)"/>
<path d="M0 0 C0.78375 0.04125 1.5675 0.0825 2.375 0.125 C1.446875 0.99125 1.446875 0.99125 0.5 1.875 C-1.43847053 3.92749821 -2.52514249 5.55866582 -3.625 8.125 C-4.625 7.125 -4.625 7.125 -4.8125 4.6875 C-4.54653904 1.05270021 -3.63803315 0.17323967 0 0 Z " fill="#343638" transform="translate(32.625,16.875)"/>
<path d="M0 0 C2.75 0.25 2.75 0.25 5 1 C4 3 4 3 1.625 4.1875 C-1 5 -1 5 -4 4 C-2.3125 1.9375 -2.3125 1.9375 0 0 Z " fill="#0E1E28" transform="translate(26,47)"/>
<path d="M0 0 C8.16964286 0.66964286 8.16964286 0.66964286 11 4 C9.35232753 3.71890887 7.70686855 3.42481474 6.0625 3.125 C4.68771484 2.88136719 4.68771484 2.88136719 3.28515625 2.6328125 C2.53105469 2.42398438 1.77695313 2.21515625 1 2 C0.67 1.34 0.34 0.68 0 0 Z " fill="#182935" transform="translate(139,46)"/>
<path d="M0 0 C0.99 0.66 1.98 1.32 3 2 C2.34 2 1.68 2 1 2 C1 3.32 1 4.64 1 6 C2.32 6.33 3.64 6.66 5 7 C3.35 7 1.7 7 0 7 C0 6.34 0 5.68 0 5 C-0.66 5 -1.32 5 -2 5 C-1.125 1.125 -1.125 1.125 0 0 Z " fill="#363F46" transform="translate(78,27)"/>
<path d="M0 0 C1.32 0 2.64 0 4 0 C5.75 2 5.75 2 7 4 C4.03 4 1.06 4 -2 4 C-1.34 3.67 -0.68 3.34 0 3 C0 2.01 0 1.02 0 0 Z " fill="#1D2227" transform="translate(47,25)"/>
<path d="M0 0 C0 0.99 0 1.98 0 3 C-2.64 3.66 -5.28 4.32 -8 5 C-8 4.34 -8 3.68 -8 3 C-5.36 2.01 -2.72 1.02 0 0 Z " fill="#CBC8BB" transform="translate(89,39)"/>
<path d="M0 0 C1.32 0 2.64 0 4 0 C4 0.99 4 1.98 4 3 C4.99 3.33 5.98 3.66 7 4 C4 5 4 5 1 4 C0.3125 1.9375 0.3125 1.9375 0 0 Z " fill="#253038" transform="translate(111,32)"/>
<path d="M0 0 C0.99 0.33 1.98 0.66 3 1 C3 1.66 3 2.32 3 3 C3.99 3.33 4.98 3.66 6 4 C5.34 4.66 4.68 5.32 4 6 C1.525 5.01 1.525 5.01 -1 4 C-0.67 2.68 -0.34 1.36 0 0 Z " fill="#21223F" transform="translate(108,57)"/>
<path d="M0 0 C0 0.66 0 1.32 0 2 C-3.05847848 2.54372951 -5.88772805 3 -9 3 C-9 2.34 -9 1.68 -9 1 C-5.94152152 0.45627049 -3.11227195 0 0 0 Z " fill="#1D2838" transform="translate(28,51)"/>
<path d="M0 0 C1.65 0 3.3 0 5 0 C5.33 0.66 5.66 1.32 6 2 C5.67 2.99 5.34 3.98 5 5 C4.01 5 3.02 5 2 5 C2 3.68 2 2.36 2 1 C1.34 0.67 0.68 0.34 0 0 Z " fill="#828687" transform="translate(69,34)"/>
<path d="M0 0 C0.33 1.32 0.66 2.64 1 4 C-0.98 4.33 -2.96 4.66 -5 5 C-5 4.01 -5 3.02 -5 2 C-3.35 2 -1.7 2 0 2 C0 1.34 0 0.68 0 0 Z " fill="#222C34" transform="translate(84,28)"/>
<path d="M0 0 C1.65 0 3.3 0 5 0 C5.66 1.98 6.32 3.96 7 6 C6.01 5.67 5.02 5.34 4 5 C4 4.34 4 3.68 4 3 C2.68 2.67 1.36 2.34 0 2 C0 1.34 0 0.68 0 0 Z " fill="#B4B6B8" transform="translate(47,22)"/>
<path d="M0 0 C1.32 0.33 2.64 0.66 4 1 C3.67 2.32 3.34 3.64 3 5 C2.01 5 1.02 5 0 5 C0 3.35 0 1.7 0 0 Z " fill="#7F7F8A" transform="translate(55,61)"/>
<path d="M0 0 C2.01920337 1.30406884 4.01924973 2.63823419 6 4 C6 4.33 6 4.66 6 5 C4.35 5 2.7 5 1 5 C0.34 3.68 -0.32 2.36 -1 1 C-0.67 0.67 -0.34 0.34 0 0 Z " fill="#232F39" transform="translate(132,41)"/>
</svg>
